<svg xmlns="http://www.w3.org/2000/svg" viewBox="0 0 20 20" width="20" height="20"><defs><style>.a{fill:#fff;}</style></defs><path class="a" d="M3.818,4.277V8.814a.456.456,0,0,0,.459.459H8.814a.456.456,0,0,0,.459-.459V4.277a.456.456,0,0,0-.459-.459H4.277A.456.456,0,0,0,3.818,4.277ZM2,4.277A2.274,2.274,0,0,1,4.277,2H8.814a2.274,2.274,0,0,1,2.277,2.277V8.814a2.274,2.274,0,0,1-2.277,2.277H4.277A2.274,2.274,0,0,1,2,8.814ZM2,15.186a2.275,2.275,0,0,1,2.276-2.277H19.724A2.273,2.273,0,0,1,22,15.186v4.537A2.275,2.275,0,0,1,19.724,22H4.276A2.273,2.273,0,0,1,2,19.723Zm1.818,0v4.537a.455.455,0,0,0,.457.459H19.724a.457.457,0,0,0,.458-.459V15.186a.455.455,0,0,0-.458-.459H4.276A.457.457,0,0,0,3.818,15.186ZM12.909,4.277A2.274,2.274,0,0,1,15.186,2h4.537A2.274,2.274,0,0,1,22,4.277V8.814a2.274,2.274,0,0,1-2.277,2.277H15.186a2.274,2.274,0,0,1-2.277-2.277Zm1.818,0V8.814a.456.456,0,0,0,.459.459h4.537a.456.456,0,0,0,.459-.459V4.277a.456.456,0,0,0-.459-.459H15.186A.456.456,0,0,0,14.727,4.277Z" transform="translate(-2 -2)"/></svg>