<svg xmlns="http://www.w3.org/2000/svg" viewBox="0 0 20 20" width="20" height="20"><defs><style>.a{fill:#fff;}</style></defs><path class="a" d="M20.933,21.093a2.858,2.858,0,0,1-5.39,0H3.952a.952.952,0,0,1,0-1.9H15.543a2.858,2.858,0,0,1,5.39,0h1.115a.952.952,0,0,1,0,1.9Zm-3.647-.952a.952.952,0,1,0,.952-.952A.952.952,0,0,0,17.286,20.141ZM15.695,6.808a2.858,2.858,0,0,1-5.39,0H3.952a.952.952,0,1,1,0-1.9h6.353a2.858,2.858,0,0,1,5.39,0h6.352a.952.952,0,1,1,0,1.9Zm-3.647-.952A.952.952,0,1,0,13,4.9.952.952,0,0,0,12.048,5.855Zm10,8.1H10.457a2.858,2.858,0,0,1-5.39,0H3.952a.952.952,0,0,1,0-1.9H5.067a2.858,2.858,0,0,1,5.39,0H22.048a.952.952,0,0,1,0,1.9ZM6.81,13a.952.952,0,1,0,.952-.952A.952.952,0,0,0,6.81,13Z" transform="translate(-3 -2.997)"/></svg>