<svg xmlns="http://www.w3.org/2000/svg" viewBox="0 0 20 14.545" width="20" height="15"><defs><style>.a{fill:#fff;}</style></defs><path class="a" d="M5.182,15.368l-2.1-.945a1.476,1.476,0,0,1,0-2.845l7.225-3.252a4.568,4.568,0,0,1,3.386,0l7.225,3.251a1.477,1.477,0,0,1,0,2.846l-2.1.945v3.768c0,2.1-3.1,3.409-6.818,3.409s-6.818-1.312-6.818-3.409ZM17,16.186l-3.307,1.488a4.568,4.568,0,0,1-3.386,0L7,16.186v2.95c0,.217.374.591,1.176.93a10.211,10.211,0,0,0,3.824.66,10.222,10.222,0,0,0,3.824-.66c.8-.339,1.176-.714,1.176-.93v-2.95Zm-4.053-6.2a2.794,2.794,0,0,0-1.895,0L4.35,13l6.7,3.016a2.794,2.794,0,0,0,1.895,0L19.65,13l-6.7-3.016Z" transform="translate(-2 -8)"/></svg>