<svg xmlns="http://www.w3.org/2000/svg" viewBox="0 0 18.175 20" width="18" height="20"><defs><style>.a{fill:#fff;}</style></defs><path class="a" d="M16.276,12.739v5.834a2.4,2.4,0,0,1-1.408,2.121l-2.857,1.175a1.477,1.477,0,0,1-2.1-1.424V12.739L4.48,4.9A1.713,1.713,0,0,1,5.927,2H20.262a1.711,1.711,0,0,1,1.456,2.893Zm-4.545,7.279,2.446-1.006a.611.611,0,0,0,.281-.439V12.454a.909.909,0,0,1,.162-.518l5.611-8.09c.017-.024-14.294-.028-14.294-.028l5.631,8.118a.909.909,0,0,1,.162.518Z" transform="translate(-4.006 -2)"/></svg>