<svg xmlns="http://www.w3.org/2000/svg" viewBox="0 0 16.361 20" width="16" height="20"><defs><style>.a{fill:#46618b;}</style></defs><path class="a" d="M12.254,11.171a3.186,3.186,0,0,1,0,1.655l4.814,3.611a3.181,3.181,0,1,1-.961,1.552l-4.814-3.611a3.181,3.181,0,1,1,0-4.759l4.814-3.611a3.181,3.181,0,1,1,.961,1.552l-4.814,3.61ZM19.18,6.544A1.363,1.363,0,1,0,17.817,5.18,1.363,1.363,0,0,0,19.18,6.544Zm0,13.635a1.363,1.363,0,1,0-1.363-1.363A1.363,1.363,0,0,0,19.18,20.179Zm-10-6.817A1.363,1.363,0,1,0,7.818,12,1.363,1.363,0,0,0,9.181,13.361Z" transform="translate(-6 -1.998)"/></svg>