<svg xmlns="http://www.w3.org/2000/svg" viewBox="0 0 20 14.675" width="20" height="15"><defs><style>.a{fill:#46618b;}</style></defs><path class="a" d="M4.929,8.124a10,10,0,0,0,0,14.142.909.909,0,1,0,1.286-1.286,8.181,8.181,0,0,1,0-11.571A.909.909,0,1,0,4.929,8.124ZM19.071,22.266a.909.909,0,1,1-1.286-1.286,8.181,8.181,0,0,0,0-11.571.909.909,0,1,1,1.286-1.286A10,10,0,0,1,19.071,22.266ZM8.143,11.338a.909.909,0,1,1,1.286,1.286,3.636,3.636,0,0,0,0,5.143.909.909,0,1,1-1.286,1.286A5.454,5.454,0,0,1,8.143,11.338Zm7.714,7.714a.909.909,0,1,1-1.286-1.286,3.636,3.636,0,0,0,0-5.143.909.909,0,1,1,1.286-1.286A5.454,5.454,0,0,1,15.857,19.052ZM12,16.559A1.364,1.364,0,1,1,13.364,15.2,1.364,1.364,0,0,1,12,16.559Z" transform="translate(-2 -7.858)"/></svg>