<svg xmlns="http://www.w3.org/2000/svg" viewBox="0 0 20 20" width="20" height="20"><defs><style>.a{fill:#46618b;}</style></defs><path class="a" d="M10.1,7.558l2.26-3.013A7.032,7.032,0,0,1,17.451,2h3.637A.909.909,0,0,1,22,2.909V6.546a7.036,7.036,0,0,1-2.545,5.089L16.439,13.9l-.81,7.295a.909.909,0,0,1-1.546.542l-3.476-3.476a.909.909,0,0,1-1.069-.16L5.9,14.46a.909.909,0,0,1-.16-1.069L2.265,9.915a.909.909,0,0,1,.542-1.546l7.3-.81Zm1.982,9.6,1.947,1.947.413-3.717ZM6.835,11.914,8.6,9.554l-3.717.414Zm11.527-1.733a5.255,5.255,0,0,0,1.818-3.635V3.818H17.451a5.246,5.246,0,0,0-3.635,1.818l-6.073,8.1,2.521,2.521ZM2,19.272A2.727,2.727,0,1,1,4.726,22H2.908A.909.909,0,0,1,2,21.09Zm1.818.909h.909a.909.909,0,1,0-.909-.909Z" transform="translate(-1.997 -2)"/></svg>