<svg xmlns="http://www.w3.org/2000/svg" viewBox="0 0 20 20" width="20" height="20"><defs><style>.a{fill:#46618b;}</style></defs><path class="a" d="M3.868,12.909a8.184,8.184,0,0,0,3.86,6.071,13.944,13.944,0,0,1-1.615-6.071Zm0-1.818H6.114A13.944,13.944,0,0,1,7.729,5.02,8.184,8.184,0,0,0,3.868,11.091Zm16.264,0a8.184,8.184,0,0,0-3.86-6.071,13.944,13.944,0,0,1,1.615,6.071Zm0,1.818H17.886a13.944,13.944,0,0,1-1.615,6.071A8.184,8.184,0,0,0,20.132,12.909Zm-9.041,7.052V12.909H7.935C8.138,16.405,9.49,19.18,11.091,19.961Zm-3.155-8.87h3.155V4.039C9.49,4.82,8.138,7.6,7.935,11.091Zm4.974-7.052v7.052h3.155C15.862,7.6,14.51,4.82,12.909,4.039Zm3.155,8.87H12.909v7.052C14.51,19.18,15.862,16.405,16.065,12.909ZM12,22A10,10,0,1,1,22,12,10,10,0,0,1,12,22Z" transform="translate(-2 -2)"/></svg>