<svg xmlns="http://www.w3.org/2000/svg" viewBox="0 0 20 19.997" width="20" height="20"><defs><style>.a{fill:#46618b;}</style></defs><path class="a" d="M21.091,5.067a2.858,2.858,0,0,1,0,5.389V22.045a.952.952,0,1,1-1.9,0V10.456a2.858,2.858,0,0,1,0-5.389V3.952a.952.952,0,1,1,1.9,0Zm-.952,3.647a.952.952,0,1,0-.952-.952A.952.952,0,0,0,20.139,8.714ZM6.807,10.3a2.858,2.858,0,0,1,0,5.389v6.352a.952.952,0,1,1-1.9,0V15.693a2.858,2.858,0,0,1,0-5.389V3.952a.952.952,0,1,1,1.9,0Zm-.952,3.647A.952.952,0,1,0,4.9,13,.952.952,0,0,0,5.855,13.951Zm8.094-10V15.542a2.858,2.858,0,0,1,0,5.389v1.115a.952.952,0,0,1-1.9,0V20.93a2.858,2.858,0,0,1,0-5.389V3.952a.952.952,0,0,1,1.9,0ZM13,19.188a.952.952,0,1,0-.952-.952A.952.952,0,0,0,13,19.188Z" transform="translate(-2.997 -3)"/></svg>