<svg xmlns="http://www.w3.org/2000/svg" viewBox="0 0 20 20" width="20" height="20"><defs><style>.a{fill:#46618b;}</style></defs><path class="a" d="M20.181,4.877l-5.347,4.2a.909.909,0,0,1-1.083.03L9.763,6.317,3.477,11.346a.909.909,0,0,1-1.136-1.42L9.159,4.471a.909.909,0,0,1,1.09-.035l3.993,2.795,4.345-3.414H16.545a.909.909,0,1,1,0-1.818H21.09A.909.909,0,0,1,22,2.909V7.454a.909.909,0,0,1-1.818,0ZM4.272,12.909a.909.909,0,0,1,1.818,0v8.182a.909.909,0,0,1-1.818,0ZM8.818,9.273a.909.909,0,1,1,1.818,0V21.091a.909.909,0,0,1-1.818,0ZM13.363,12a.909.909,0,0,1,1.818,0v9.091a.909.909,0,0,1-1.818,0Zm4.545-1.818a.909.909,0,1,1,1.818,0V21.091a.909.909,0,0,1-1.818,0Z" transform="translate(-1.999 -2)"/></svg>