<svg xmlns="http://www.w3.org/2000/svg" viewBox="0 0 20 19.999" width="20" height="20"><defs><style>.a{fill:#46618b;}</style></defs><path class="a" d="M2,4.321A2.318,2.318,0,0,1,4.321,2H9a4.807,4.807,0,0,1,3.049,1.261l9.271,9.271a2.318,2.318,0,0,1,0,3.277L15.808,21.32a2.32,2.32,0,0,1-3.277,0L3.261,12.052A4.786,4.786,0,0,1,2,9Zm1.818,0V9a3.015,3.015,0,0,0,.728,1.763l9.271,9.271a.5.5,0,0,0,.705,0l5.513-5.513a.5.5,0,0,0,0-.705L10.767,4.546A3.04,3.04,0,0,0,9,3.818H4.321A.5.5,0,0,0,3.818,4.321ZM7,8.364A1.364,1.364,0,1,1,8.364,7,1.364,1.364,0,0,1,7,8.364Z" transform="translate(-2 -2)"/></svg>