<svg xmlns="http://www.w3.org/2000/svg" width="32" height="32" viewBox="0 0 32 32">
  <g fill="#none" fill-rule="evenodd">
    <path d="M16,32 C7.163444,32 0,24.836556 0,16 C0,7.163444 7.163444,0 16,0 C24.836556,0 32,7.163444 32,16 C32,24.836556 24.836556,32 16,32 Z M16,27 C22.0751322,27 27,22.0751322 27,16 C27,9.92486775 22.0751322,5 16,5 C9.92486775,5 5,9.92486775 5,16 C5,22.0751322 9.92486775,27 16,27 Z"/>
    <path d="M19.2404976,15.3809472 C23.3153651,16.3410364 27.7148123,16.8551267 32,13.2562674 C27.9682101,17.798874 23.932504,17.592557 19.2603087,16.5103571 C22.756047,18.7859728 26.7125086,20.7517725 31.9884819,18.8136634 C26.6224372,21.7234373 22.9020963,20.1700447 18.8875835,17.5787117 C21.3824004,20.8947646 24.4178761,24.0753155 30.048376,24.0321909 C23.9958535,24.9582344 21.0391615,22.2445638 18.1663211,18.4566373 C19.3593642,22.4134305 21.1075789,26.4246969 26.4137296,28.2817773 C20.4047455,27.1126474 18.5680719,23.5662185 17.1833679,19.0385921 C16.9313522,23.1588048 17.181525,27.5175645 21.522921,31.050602 C16.2826538,27.926794 15.7878369,23.975675 16.0580511,19.2544419 C14.3909238,23.0412335 13.1131076,27.2213667 15.9661368,32.004336 C12.1260078,27.3028495 13.0327114,23.4229995 14.9255932,19.0778581 C12.0444598,22.0743352 9.39276664,25.5717382 10.4132688,31.0276779 C8.43699608,25.3159414 10.6355678,21.9758296 13.9228288,18.530176 C10.1750749,20.3749999 6.46947708,22.7679599 5.53466943,28.2388797 C5.65998618,22.2055247 8.88551025,19.8077983 13.170698,17.6776713 C9.00829302,18.14841 4.69523151,19.1482193 1.91799125,23.9740862 C4.12992398,18.3470101 7.99331951,17.1808308 12.7595024,16.6231619 C8.6850956,15.6630727 4.28518774,15.1489823 0,18.7478416 C4.03202027,14.2052351 8.06726561,14.4115521 12.7390002,15.493752 C9.24372264,13.2181362 5.28795208,11.2523365 0.0117484451,13.1904457 C5.37733241,10.2806718 9.09790371,11.8342913 13.1126469,14.4256243 C10.61783,11.1095715 7.5823543,7.92902058 1.95162405,7.97214515 C8.00414651,7.04610164 10.9608385,9.75999925 13.8341396,13.5479258 C12.6408662,9.59090552 10.8924211,5.57941214 5.58650081,3.72210478 C11.5947938,4.89168865 13.4316978,8.43789056 14.8168625,12.96529 C15.0686478,8.84530431 14.818475,4.48654462 10.477079,0.953507054 C15.7180373,4.0773151 16.2123935,8.02956893 15.9417185,12.7514829 C17.609537,8.96423735 18.8875835,4.78387722 16.0338632,0 C19.8739922,4.70125961 18.967519,8.58088258 17.0741765,12.9264779 C19.9555402,9.92977389 22.6076941,6.43237085 21.5865008,0.976431171 C23.5632343,6.68816767 21.3646625,10.0285065 18.0771712,13.4739331 C21.8251555,11.6288822 25.5307533,9.23614915 26.4655609,3.76522936 C26.3402442,9.7985844 23.1147201,12.1963108 18.8295324,14.3264378 C22.9919373,13.855699 27.3047685,12.8558898 30.0820088,8.03002287 C27.870076,13.657326 24.0066805,14.8235053 19.2404976,15.3809472"/>
    <circle cx="16" cy="16" r="3"/>
  </g>
</svg>
