<svg xmlns="http://www.w3.org/2000/svg" viewBox="3575 2318 200 200"><defs><style>.a,.b{fill:#f6f6f6;}.a{stroke:#46618b;stroke-width:3px;}.c{fill:#fcf9de;}.d,.g{fill:#c2e9f9;}.d,.e,.i,.j{stroke:#545e65;stroke-miterlimit:10;}.e,.i,.o{fill:none;}.e{stroke-width:2px;}.f{fill:#d8f0c8;}.h,.j{fill:#dde0e2;}.k{fill:#545e65;}.l{fill:#fff;}.m{fill:#697280;}.n{stroke:none;}</style></defs><g transform="translate(2702 -16)"><g class="a" transform="translate(873 2334)"><circle class="n" cx="100" cy="100" r="100"/><circle class="o" cx="100" cy="100" r="98.5"/></g><g transform="translate(915.219 2334)"><g transform="translate(0 53)"><path class="b" d="M5.025,127.264A5,5,0,0,1,0,122.239V58.025A5,5,0,0,1,5.025,53H53.1L63.655,63.553v58.685a5,5,0,0,1-5.025,5.025Z" transform="translate(0 -53)"/><path class="c" d="M9.117,127.447A1.12,1.12,0,0,1,8,126.33V62.117A1.12,1.12,0,0,1,9.117,61H55.574l8.264,7.706V126.33a1.12,1.12,0,0,1-1.117,1.117Z" transform="translate(-3.533 -56.533)"/><g transform="translate(51.65 3.071)"><path class="d" d="M92.5,58.5v6.7a2.24,2.24,0,0,0,2.233,2.233h6.7" transform="translate(-92.5 -58.5)"/><path class="b" d="M94.117,65.289V59.817L93,58.7v6.589a1.978,1.978,0,0,0,1.954,1.954h1.117A1.978,1.978,0,0,1,94.117,65.289Z" transform="translate(-92.721 -58.588)"/></g><path class="e" d="M60.838,126.68H7.234A2.24,2.24,0,0,1,5,124.447V60.234A2.24,2.24,0,0,1,7.234,58h46.9l8.934,8.934v57.513A2.24,2.24,0,0,1,60.838,126.68Z" transform="translate(-2.208 -55.208)"/></g><g transform="translate(12.563 70.868)"><g transform="translate(0 0)"><path class="f" d="M41.485,122.97a18.613,18.613,0,0,1-13.4-5.584,19.035,19.035,0,0,1-5.584-13.4h4.467a14.489,14.489,0,1,0,4.244-10.274l-3.127-3.127A18.938,18.938,0,0,1,41.485,85a18.707,18.707,0,0,1,13.4,5.584,19.035,19.035,0,0,1,5.584,13.4,18.707,18.707,0,0,1-5.584,13.4A18.938,18.938,0,0,1,41.485,122.97Z" transform="translate(-22.5 -85)"/></g><g transform="translate(0 0)"><path class="e" d="M28.084,90.584A18.938,18.938,0,0,1,41.485,85a18.707,18.707,0,0,1,13.4,5.584,19.035,19.035,0,0,1,5.584,13.4,18.707,18.707,0,0,1-5.584,13.4,19.035,19.035,0,0,1-13.4,5.584,18.707,18.707,0,0,1-13.4-5.584,19.035,19.035,0,0,1-5.584-13.4" transform="translate(-22.5 -85)"/></g><path class="g" d="M45.018,93v4.467a10.051,10.051,0,1,1-10.051,10.051H30.5A14.518,14.518,0,1,0,45.018,93Z" transform="translate(-26.033 -88.533)"/><path class="e" d="M30.5,107.518A14.518,14.518,0,1,0,45.018,93" transform="translate(-26.033 -88.533)"/><path class="h" d="M48.551,101a10.051,10.051,0,1,0,0,20.1v-4.467a5.584,5.584,0,1,1,5.584-5.584H58.6A10.08,10.08,0,0,0,48.551,101Z" transform="translate(-29.566 -92.066)"/><line class="i" y2="2.792" transform="translate(18.985 8.934)"/><line class="i" x2="2.792" transform="translate(30.711 18.985)"/><line class="i" y2="2.792" transform="translate(18.985 35.178)"/><line class="i" y2="2.792" transform="translate(18.985 0)"/><path class="e" d="M58.6,111.051A10.051,10.051,0,1,0,48.551,121.1" transform="translate(-29.566 -92.066)"/></g><g transform="translate(35.178 69.751)"><path class="b" d="M68.025,168.431A5,5,0,0,1,63,163.406V88.025A5,5,0,0,1,68.025,83h59.244l10.553,10.553v69.853a5,5,0,0,1-5.025,5.025Z" transform="translate(-63 -83)"/><path class="g" d="M72.117,168.614A1.12,1.12,0,0,1,71,167.5V92.117A1.12,1.12,0,0,1,72.117,91h57.624l8.264,7.706V167.5a1.12,1.12,0,0,1-1.117,1.117Z" transform="translate(-66.533 -86.533)"/><g transform="translate(62.817 3.071)"><path class="j" d="M175.5,88.5v6.7a2.24,2.24,0,0,0,2.234,2.234h6.7" transform="translate(-175.5 -88.5)"/><path class="b" d="M177.117,95.289V89.817L176,88.7v6.589a1.978,1.978,0,0,0,1.954,1.954h1.117A1.978,1.978,0,0,1,177.117,95.289Z" transform="translate(-175.721 -88.588)"/></g><path class="e" d="M135.005,167.848H70.233A2.24,2.24,0,0,1,68,165.614V90.234A2.24,2.24,0,0,1,70.233,88H128.3l8.934,8.934v68.68A2.24,2.24,0,0,1,135.005,167.848Z" transform="translate(-65.208 -85.208)"/></g><g transform="translate(44.949 91.249)"><g transform="translate(16.751 17.868)"><rect class="k" width="22.335" height="2.234"/><rect class="k" width="13.401" height="2.234" transform="translate(0 4.467)"/><rect class="k" width="18.985" height="2.234" transform="translate(0 8.934)"/></g><g transform="translate(0 3.685)"><path class="l" d="M108.419,175.785a27.883,27.883,0,0,1-19.767-8.152A27.557,27.557,0,0,1,80.5,147.867h4.467A23.452,23.452,0,1,0,125,131.283l3.183-3.183a27.919,27.919,0,0,1-19.767,47.685Z" transform="translate(-80.5 -128.1)"/></g><g transform="translate(0 3.685)"><path class="e" d="M128.185,128.1A27.954,27.954,0,1,1,80.5,147.867" transform="translate(-80.5 -128.1)"/></g><g transform="translate(11.335)"><path class="c" d="M117.384,168.4a23.459,23.459,0,0,1-16.584-6.868l3.183-3.183a18.938,18.938,0,0,0,13.4,5.584,18.613,18.613,0,0,0,13.4-5.584,19.035,19.035,0,0,0,5.584-13.4,18.707,18.707,0,0,0-5.584-13.4,19.035,19.035,0,0,0-13.4-5.584V121.5a23.459,23.459,0,0,1,16.584,6.868,23.132,23.132,0,0,1,6.868,16.584,23.459,23.459,0,0,1-6.868,16.584A23.132,23.132,0,0,1,117.384,168.4Z" transform="translate(-100.8 -121.5)"/></g><g transform="translate(11.335)"><path class="e" d="M117.384,121.5a23.459,23.459,0,0,1,16.584,6.868,23.132,23.132,0,0,1,6.868,16.584,23.459,23.459,0,0,1-6.868,16.584,23.132,23.132,0,0,1-16.584,6.868,23.459,23.459,0,0,1-16.584-6.868" transform="translate(-100.8 -121.5)"/></g><line class="i" x2="2.792" transform="translate(48.579 23.452)"/><line class="i" y2="2.792" transform="translate(27.919 44.112)"/></g></g><rect class="f" width="10" height="10" transform="translate(917 2474)"/><rect class="g" width="12" height="12" transform="translate(973 2361)"/><rect class="m" width="6" height="6" transform="translate(1011 2381)"/></g></svg>