<svg xmlns="http://www.w3.org/2000/svg" viewBox="2905 2318 200 200"><defs><style>.a{fill:#f6f6f6;stroke:#46618b;stroke-width:3px;}.b{fill:#fff;}.c{fill:#dde0e2;}.d,.e,.i{fill:none;}.d,.e{stroke:#545e65;stroke-miterlimit:10;}.d{stroke-width:2px;}.f{fill:#ff5c47;}.g{fill:#545e65;}.h{stroke:none;}</style></defs><g transform="translate(2700 -16)"><g class="a" transform="translate(205 2334)"><circle class="h" cx="100" cy="100" r="100"/><circle class="i" cx="100" cy="100" r="98.5"/></g><g transform="translate(257 2355)"><path class="b" d="M86.273,164.429h0a29.589,29.589,0,0,0-8.785-21.085,30.117,30.117,0,0,0-59.87,4.685,31.592,31.592,0,0,0,.846,7.093A18.51,18.51,0,1,0,35.254,184.8a29.557,29.557,0,0,0,42.625.2,10.91,10.91,0,0,0,5.6,1.5,11.2,11.2,0,0,0,2.8-22.061Z" transform="translate(0 -39.674)"/><g transform="translate(8.508 4.3)"><g transform="translate(3.254 3.254)"><path class="c" d="M35.872,98.6,17,125.737v3.9H35.872Z" transform="translate(-17 -40.487)"/><path class="c" d="M77.633,63.313V37.543a30.708,30.708,0,0,0-3.579-14.317L68.262,12.293a5.582,5.582,0,0,0-9.892,0L52.579,23.226A30.514,30.514,0,0,0,49,37.543V64.549h0v39.826H77.633V98.519H98.458V93.248Z" transform="translate(-28.176 -9.3)"/></g><line class="d" y2="25.38" transform="translate(21.475 39.046)"/><line class="d" y1="25.38" transform="translate(52.711 39.046)"/><line class="d" y1="37.093" transform="translate(37.093 55.965)"/><line class="d" y2="4.555" transform="translate(21.475 88.503)"/><line class="d" y1="4.555" transform="translate(52.711 88.503)"/><line class="e" x2="4.555" transform="translate(48.807 34.816)"/><line class="e" x2="4.555" transform="translate(20.824 34.816)"/><line class="e" x2="4.555" transform="translate(48.807 45.879)"/><line class="e" x2="4.555" transform="translate(20.824 45.879)"/><line class="e" x2="5.206" transform="translate(34.816 34.816)"/><line class="e" x2="5.206" transform="translate(34.816 45.879)"/><path class="d" d="M86.187,90.851,65.362,60.916V34.5a32.568,32.568,0,0,0-3.774-15.228L55.8,8.335a7.6,7.6,0,0,0-6.7-4.035h0a7.6,7.6,0,0,0-6.7,4.035L36.6,19.267A32.959,32.959,0,0,0,32.824,34.5V60.916L12,90.851v6.508H32.824v5.857H65.362V97.359H86.187Z" transform="translate(-12 -4.3)"/><path class="d" d="M73.523,34.912c-5.4-3.449-14.121-3.449-19.523,0" transform="translate(-26.668 -14.087)"/><path class="b" d="M72.994,164.3H54.513a26.35,26.35,0,0,0,9.241,26.03A26.315,26.315,0,0,0,72.994,164.3Z" transform="translate(-26.66 -60.179)"/><path class="f" d="M74.374,167.3H57.52A26.6,26.6,0,0,0,63.7,190.4c.325.325.716.651,1.106.976A26.3,26.3,0,0,0,74.374,167.3Z" transform="translate(-27.715 -61.226)"/><line class="d" y2="27.332" transform="translate(13.015 104.121)"/><line class="d" y2="14.967" transform="translate(71.584 97.614)"/><g transform="translate(26.642 103.471)"><path class="g" d="M72.632,163.951a26.35,26.35,0,0,1-9.241,26.03,26.35,26.35,0,0,1-9.241-26.03H72.632m.521-.651H53.63l-.13.521A26.965,26.965,0,0,0,62.936,190.5l.39.325.39-.325a26.965,26.965,0,0,0,9.436-26.681V163.3Z" transform="translate(-52.94 -163.3)"/></g><path class="b" d="M66,164.3l1.952,11.714L69.9,164.3Z" transform="translate(-30.859 -60.179)"/><path class="d" d="M50,160.3v2.6H74.729v-2.6" transform="translate(-25.271 -58.782)"/></g></g><path class="f" d="M10,5A4.951,4.951,0,0,1,5,0,4.951,4.951,0,0,1,0,5a4.951,4.951,0,0,1,5,5A4.951,4.951,0,0,1,10,5Z" transform="translate(347 2371)"/><path class="g" d="M10,5A4.951,4.951,0,0,1,5,0,4.951,4.951,0,0,1,0,5a4.951,4.951,0,0,1,5,5A4.951,4.951,0,0,1,10,5Z" transform="translate(244 2406)"/><path class="g" d="M5.6,2.8A2.773,2.773,0,0,1,2.8,0,2.773,2.773,0,0,1,0,2.8,2.773,2.773,0,0,1,2.8,5.6,2.773,2.773,0,0,1,5.6,2.8Z" transform="translate(358.2 2426.2)"/></g></svg>