<svg xmlns="http://www.w3.org/2000/svg" viewBox="3240 2318 200 200"><defs><style>.a{fill:#f6f6f6;stroke:#46618b;stroke-width:3px;}.b{fill:#fcf9de;}.c,.d,.k{fill:none;}.c,.d{stroke:#545e65;stroke-miterlimit:10;}.c{stroke-width:2px;}.e{fill:#ff5c47;}.f{opacity:0.4;}.g{fill:#545e65;}.h{opacity:0.2;}.i{opacity:0.1;}.j{stroke:none;}</style></defs><g transform="translate(2700 -16)"><g class="a" transform="translate(540 2334)"><circle class="j" cx="100" cy="100" r="100"/><circle class="k" cx="100" cy="100" r="98.5"/></g><g transform="translate(560 2321.928)"><g transform="translate(0 32.072)"><path class="b" d="M98.076,178.251a35.676,35.676,0,1,1,35.676-35.676A35.711,35.711,0,0,1,98.076,178.251Z" transform="translate(-17.427 -61.927)"/><g transform="translate(80 68.685)"><path class="c" d="M122.315,139.8,111,151.115l8.144,8.144" transform="translate(-111 -139.8)"/></g><g transform="translate(47.135 47.135)"><line class="d" y2="9.081" transform="translate(32.865)"/><line class="d" y2="9.081" transform="translate(32.865 56.649)"/><g transform="translate(0 32.865)"><line class="d" x1="9.081" transform="translate(56.649)"/><line class="d" x1="9.081"/></g></g><g transform="translate(56.793 56.793)"><line class="d" x1="6.414" y2="6.342" transform="translate(40)"/><line class="d" x1="6.414" y2="6.414" transform="translate(0 40)"/><line class="d" x1="6.414" y1="6.414" transform="translate(40 40)"/><line class="d" x1="6.414" y1="6.342"/></g><path class="e" d="M96.081,181.662a41.081,41.081,0,1,1,41.081-41.081A41.155,41.155,0,0,1,96.081,181.662Zm0-79.279a38.2,38.2,0,1,0,38.2,38.2A38.264,38.264,0,0,0,96.081,102.383Z" transform="translate(-15.36 -59.86)"/><path class="c" d="M142,98.3q1.946,1.081,3.892,2.378c1.225.865,2.45,1.73,3.6,2.667a49.432,49.432,0,0,1,6.342,6.342,42.229,42.229,0,0,1,2.667,3.6,35.034,35.034,0,0,1,2.378,3.892" transform="translate(-39.658 -59.525)"/><path class="c" d="M53.9,117.183q1.081-1.946,2.378-3.892c.865-1.3,1.73-2.45,2.667-3.6a49.434,49.434,0,0,1,6.342-6.342,42.231,42.231,0,0,1,3.6-2.667A35.031,35.031,0,0,1,72.783,98.3" transform="translate(-15.053 -59.525)"/><path class="c" d="M94.523,181.545a42.523,42.523,0,1,1,42.523-42.523A42.6,42.6,0,0,1,94.523,181.545Zm0-79.279a36.757,36.757,0,1,0,36.757,36.757A36.818,36.818,0,0,0,94.523,102.266Z" transform="translate(-14.523 -59.023)"/><g class="f" transform="translate(21.622 21.622)"><path class="g" d="M88.378,75.221a57.658,57.658,0,1,1-57.658,57.658A57.734,57.734,0,0,1,88.378,75.221m0-.721a58.378,58.378,0,1,0,58.378,58.378A58.411,58.411,0,0,0,88.378,74.5Z" transform="translate(-30 -74.5)"/></g><g class="h" transform="translate(10.811 10.811)"><path class="g" d="M84.189,60.221a68.468,68.468,0,1,1-68.468,68.468A68.53,68.53,0,0,1,84.189,60.221m0-.721a69.189,69.189,0,1,0,69.189,69.189A69.3,69.3,0,0,0,84.189,59.5Z" transform="translate(-15 -59.5)"/></g><g class="i"><path class="g" d="M80,45.221A79.279,79.279,0,1,1,.721,124.5,79.327,79.327,0,0,1,80,45.221m0-.721a80,80,0,1,0,80,80,80.1,80.1,0,0,0-80-80Z" transform="translate(0 -44.5)"/></g></g></g></g></svg>