<svg xmlns="http://www.w3.org/2000/svg" width="23" height="24" viewBox="601.5 1160.5 23.143 24"><defs><style>.a{fill:#fff;}</style></defs><g transform="translate(600.5 1160.5)"><path class="a" d="M4,6A3,3,0,0,0,6.966,3.429H23.714a.429.429,0,1,0,0-.857H6.966A3,3,0,1,0,4,6ZM4,.857A2.143,2.143,0,1,1,1.857,3,2.145,2.145,0,0,1,4,.857Z"/><path class="a" d="M21.143,42a3,3,0,0,0-2.966,2.571H1.429a.429.429,0,0,0,0,.857H18.177A3,3,0,1,0,21.143,42Zm0,5.143A2.143,2.143,0,1,1,23.286,45,2.145,2.145,0,0,1,21.143,47.143Z" transform="translate(0 -24)"/><path class="a" d="M23.714,23.335H15.729a3.088,3.088,0,0,0-6.138,0H1.429a.429.429,0,0,0,0,.857h8.19a3.085,3.085,0,0,0,6.084,0h8.013a.429.429,0,1,0,0-.857ZM12.66,25.906a2.232,2.232,0,1,1,2.232-2.232A2.234,2.234,0,0,1,12.66,25.906Z" transform="translate(0 -11.763)"/></g></svg>
