<svg xmlns="http://www.w3.org/2000/svg" width="24" height="24" viewBox="601 937 24 24"><defs><style>.a{fill:#fff;}</style></defs><g transform="translate(600.825 937)"><path class="a" d="M8.757.5a12,12,0,0,0-6.59,4.88,3.26,3.26,0,0,0-.392,1.247V2.414H.175v6.4h6.4v-1.6H2.959a10.545,10.545,0,0,1,9.216-5.676,10.535,10.535,0,0,1,9.968,7.5l1.536-.456A12,12,0,0,0,8.757.5Z"/><path class="a" d="M27.2,300.066v1.6h3.616A10.545,10.545,0,0,1,21.6,307.34a10.535,10.535,0,0,1-9.968-7.5l-1.536.456a12,12,0,0,0,21.648,2.966A2.2,2.2,0,0,0,32,302.248v4.213h1.6v-6.4Z" transform="translate(-9.424 -284.861)"/></g></svg>
