<svg xmlns="http://www.w3.org/2000/svg" width="20" height="24" viewBox="603.5 826 20 24"><defs><style>.a{fill:#fff;fill-rule:evenodd;}</style></defs><path class="a" d="M18.806,11.877a.81.81,0,0,1,.124.058c2.321,1.328.322,5.878-.871,8.6-.195.443-.363.827-.423,1.006-.592,1.757-1.839,1.757-3.906,1.757h-.187a21.539,21.539,0,0,0-2.874.308,28.056,28.056,0,0,1-4.035.4,10.4,10.4,0,0,1-1.542-.106,3.514,3.514,0,0,1-2.444-1.36A3.592,3.592,0,0,1,2,20.5,2.668,2.668,0,0,1,.823,18.585a2.294,2.294,0,0,1,.325-1.326,2.986,2.986,0,0,1-.769-2.413A2.384,2.384,0,0,1,.706,14,2.7,2.7,0,0,1,0,12.086,2.306,2.306,0,0,1,.61,10.353C1.545,9.371,2.767,9.312,4.54,9.3c.248,0,.5,0,.743-.009.705-.014,1.21-.222,1.351-.558s0-1.009-.811-1.89A6.694,6.694,0,0,1,4,1.994C4.123,1.069,4.8.66,5.493.228A2.971,2.971,0,0,1,6.807,0C7.845,0,8.334.959,8.9,2.07A17.254,17.254,0,0,0,10.04,4.058a15.492,15.492,0,0,0,3.091,3.025,14.524,14.524,0,0,1,2.64,2.52A7.46,7.46,0,0,0,18.806,11.877ZM14.69,10.384a12.394,12.394,0,0,0-2.4-2.267l-.313-.255A14.4,14.4,0,0,1,8.94,4.811,17.2,17.2,0,0,1,7.714,2.676c-.1-.2-.146-.286-.2-.389-.411-.783-.58-.953-.706-.953-.3,0-.632.041-.606.025l-.088.055c-.637.4-.759.527-.789.754A5.425,5.425,0,0,0,6.8,5.937c1.032,1.115,1.475,2.327,1.062,3.31A2.584,2.584,0,0,1,5.31,10.623c-.164,0-.329.005-.561.007h-.2c-1.916.015-2.5.141-2.973.64a.989.989,0,0,0-.242.77,1.462,1.462,0,0,0,.3,1.006l.767.75-.569.91a1.047,1.047,0,0,0-.147.374,1.713,1.713,0,0,0,.5,1.345l.569.713-.459.789a.962.962,0,0,0-.147.56,1.387,1.387,0,0,0,.655.955l.507.389.014.639a2.231,2.231,0,0,0,.4,1.276,2.2,2.2,0,0,0,1.562.826,9.093,9.093,0,0,0,1.346.091c.342,0,.7-.015,1.094-.044.675-.051,1.346-.134,2.344-.28l.4-.059a20.118,20.118,0,0,1,3.07-.323h.187c2.162,0,2.381-.075,2.642-.85.07-.208.166-.432.466-1.115.288-.657.425-.972.592-1.373.3-.716.539-1.348.732-1.941.667-2.042.643-3.238.132-3.572A8.044,8.044,0,0,1,14.69,10.384Z" transform="translate(603.5 826)"/></svg>
