<svg xmlns="http://www.w3.org/2000/svg" viewBox="597 1289 32 45.189"><defs><style>.a{fill:#cfd8e1;}</style></defs><g transform="translate(581.75 1289)"><path class="a" d="M45.736,0H16.764A1.515,1.515,0,0,0,15.25,1.514V43.676a1.515,1.515,0,0,0,1.514,1.514H45.736a1.515,1.515,0,0,0,1.514-1.514V1.514A1.515,1.515,0,0,0,45.736,0ZM30.349,1.982h1.8a.216.216,0,1,1,0,.432h-1.8a.216.216,0,1,1,0-.432Zm.9,42.09A1.153,1.153,0,1,1,32.4,42.919,1.153,1.153,0,0,1,31.25,44.072ZM45.3,40.541H17.132V4.216H45.3Z" transform="translate(0)"/></g></svg>